<?xml version="1.0" encoding="utf-8"?>
<!-- Generator: Adobe Illustrator 24.1.2, SVG Export Plug-In . SVG Version: 6.00 Build 0)  -->
<svg version="1.1" id="Camada_1" xmlns="http://www.w3.org/2000/svg" xmlns:xlink="http://www.w3.org/1999/xlink" x="0px" y="0px"
	 viewBox="0 0 100 100" style="enable-background:new 0 0 100 100;" xml:space="preserve">
<style type="text/css">
	.st0{fill:#545454;}
</style>
<g>
	<g>
		<path class="st0" d="M43.21,16.57l-0.99-2.52l4.35-11.52l38.7,83.12c0,0,5.8,10.61,9.77,11.83h-20.3
			c4.05-1.3,4.27-6.41,2.37-11.68L43.21,16.57"/>
		<path class="st0" d="M18.63,76.1c-3.82,15.42,5.95,19.23,12.52,21.37H1c7.56-2.52,12.67-10.38,17.78-22.36L18.63,76.1z"/>
		<path class="st0" d="M43.21,16.57"/>
	</g>
	<path class="st0" d="M5.73,79c1.68-4.05,4.27-7.71,7.63-10.53c3.36-2.9,7.33-5.04,11.45-6.64s8.47-2.52,12.75-3.28
		c4.35-0.76,8.7-1.14,12.98-1.53c4.35-0.38,8.7-0.53,12.98-0.84c4.35-0.23,8.62-0.61,12.82-1.14c2.14-0.31,4.27-0.61,6.33-1.14
		c2.06-0.46,4.12-1.07,6.11-1.83c1.98-0.76,3.89-1.76,5.65-2.98c1.76-1.22,3.28-2.75,4.58-4.5c-1.07,1.91-2.52,3.59-4.12,5.04
		c-1.68,1.45-3.59,2.6-5.57,3.59c-4.05,1.91-8.32,2.98-12.59,3.74c-8.62,1.53-17.33,1.83-25.95,2.52
		c-4.27,0.31-8.62,0.76-12.82,1.37c-4.27,0.61-8.4,1.45-12.52,2.82c-4.05,1.37-7.94,3.13-11.3,5.72C10.69,71.9,7.79,75.26,5.73,79z"
		/>
</g>
</svg>
