<?xml version="1.0" encoding="utf-8"?>
<!-- Generator: Adobe Illustrator 24.1.2, SVG Export Plug-In . SVG Version: 6.00 Build 0)  -->
<svg version="1.1" id="Camada_1" xmlns="http://www.w3.org/2000/svg" xmlns:xlink="http://www.w3.org/1999/xlink" x="0px" y="0px"
	 viewBox="0 0 447 129.1" style="enable-background:new 0 0 447 129.1;" xml:space="preserve">
<g>
	<g>
		<g>
			<path d="M151.1,126.4V1.9h11.1v124.4L151.1,126.4L151.1,126.4z"/>
			<path d="M247.7,117.1c-1.1,3.1-3.5,5.7-7.2,7.7c-3.7,2.1-7.9,3.2-12.5,3.2c-6.6,0-12.1-2-16.6-6c-4.5-3.9-6.7-8.8-6.7-14.7V42.8
				h-11.2v-1.7h11.2v-23h11.1v23H243v1.7h-27.3v67.3c0,4.4,1.4,8.2,4.3,11.2c2.8,3.1,6.3,4.6,10.5,4.6c3.2,0,6.2-1,9.3-2.9
				s5.1-4.2,6.1-7L247.7,117.1z"/>
			<path d="M336.9,40.3H348v86.1h-11.1v-17.1c-2.9,5.6-7.4,10.1-13.3,13.5c-6,3.5-12.4,5.2-19.2,5.2c-8.9,0-16.2-2.8-22.1-8.3
				c-5.9-5.6-8.8-12.6-8.8-21V40.3h11.1v61.3c0,6.7,2.1,12.3,6.2,16.7s9.4,6.7,15.8,6.7c6.2,0,12.1-1.8,17.8-5.6
				c5.7-3.7,9.8-8.5,12.6-14.4V40.3H336.9z"/>
		</g>
		<path d="M436.1,88.1c-3.1-2.1-5.9-3.7-8.4-5s-5.9-2.7-10.2-4.4c-3.2-1.3-5.8-2.3-7.7-3.3c-1.8-0.8-4-1.9-6.6-3.3
			c-2.6-1.3-4.5-2.7-5.8-4c-2.7-2.6-5-6.3-5-10.4c0-4.7,2.2-8.6,6.6-11.8c4.3-3.2,9.7-4.7,16.2-4.7c9.9,0,17,2.6,21.3,7.7h-0.1
			c1,1,1.8,2.1,2.4,3.3c0.2,0,0.4,0,0.6,0c1,0,1.9,0.1,2.8,0.3c-1.1-3.1-3.6-5.8-7.5-8.1c-5.5-3.3-12.2-4.8-20.1-4.8
			c-9,0-16.3,2.1-22,6.2c-5.7,4.2-8.7,9.7-8.7,16.4s3.3,12.4,9.6,16.8c3.2,2.3,6,3.9,8.6,5.2c2.6,1.3,5.9,2.8,10.1,4.4
			c4.2,1.8,7.4,3.1,9.6,4.1c2.2,1.1,4.7,2.4,7.4,4.2c5.6,3.5,7.7,7.5,7.7,12.7c0,4.7-2.2,8.7-6.5,12c-4.4,3.3-10.1,4.9-17,4.9
			c-5.5,0-10.6-0.9-15.1-2.7c-4.6-1.8-8.1-4.2-10.3-7.1h0.1c-0.9-1.2-1.6-2.5-2.1-3.9c-1.4,0-2.6-0.2-3.9-0.6
			c0.9,4.1,4,7.6,9.3,10.5c6.3,3.6,13.9,5.4,22.8,5.4c9.6,0,17.1-2.2,22.9-6.4c5.7-4.2,8.5-9.8,8.5-16.7
			C445.5,97.8,442.4,92.3,436.1,88.1z"/>
		<g>
			<path d="M57.3,20.4L56,17.1L61.7,2l50.7,108.9c0,0,7.6,13.9,12.8,15.5H98.6c5.3-1.7,5.6-8.4,3.1-15.3L57.3,20.4"/>
			<path d="M25.1,98.4c-5,20.2,7.8,25.2,16.4,28H2c9.9-3.3,16.6-13.6,23.3-29.3L25.1,98.4z"/>
			<path d="M57.3,20.4"/>
		</g>
		<path d="M8.2,102.2c2.2-5.3,5.6-10.1,10-13.8c4.4-3.8,9.6-6.6,15-8.7s11.1-3.3,16.7-4.3c5.7-1,11.4-1.5,17-2
			c5.7-0.5,11.4-0.7,17-1.1c5.7-0.3,11.3-0.8,16.8-1.5c2.8-0.4,5.6-0.8,8.3-1.5c2.7-0.6,5.4-1.4,8-2.4s5.1-2.3,7.4-3.9
			s4.3-3.6,6-5.9c-1.4,2.5-3.3,4.7-5.4,6.6c-2.2,1.9-4.7,3.4-7.3,4.7c-5.3,2.5-10.9,3.9-16.5,4.9c-11.3,2-22.7,2.4-34,3.3
			c-5.6,0.4-11.3,1-16.8,1.8c-5.6,0.8-11,1.9-16.4,3.7c-5.3,1.8-10.4,4.1-14.8,7.5C14.7,92.9,10.9,97.3,8.2,102.2z"/>
	</g>
</g>
</svg>
